<svg xmlns="http://www.w3.org/2000/svg" viewBox="0 0 100 100"><path d="M80.644 87.982l16.592-41.483c.054-.128.088-.26.108-.394.006-.039.007-.077.011-.116a1.737 1.737 0 0 0-.075-.659c-.012-.034-.019-.069-.031-.103a1.736 1.736 0 0 0-.178-.335l-.01-.018L67.999 3.358c-.01-.013-.003-.026-.013-.04L68 3.315V4h-.037c-.403-1-1.094-1.124-1.752-.976 0 .004-.004-.012-.007-.012-.003.004-.01-.012-.01-.012h-.017-.007c-.003 0-.003-.151-.007-.151L20.495 15.227c-.025.007-.046-.019-.071-.011-.087.028-.172.041-.253.083a1.602 1.602 0 0 0-.152.085c-.051.033-.101.061-.147.099a1.661 1.661 0 0 0-.26.265c-.03.039-.059.076-.085.117a1.7 1.7 0 0 0-.12.223c-.011.023-.027.042-.036.066l-16.46 41.51c-.02.051.089.104.089.156V58.404c0 .074-.002.15.012.223.003.004-.012.004-.012.006V58.657c0 .191-.046.377.06.545 0-.002-.03.004-.03.004 0 .004-.03.004-.03.004v.002l-.045.004c.03.047.036.09.068.133l29.049 37.359c.002.004 0 .006.002.01.002.002 0 .004.002.008.006.008.014.014.021.021.024.029.052.051.078.078.027.029.053.057.082.082.03.027.055.062.086.088.026.02.057.033.084.053.04.027.081.053.123.076.005.004.01.008.016.01.087.051.176.09.269.123.042.014.082.031.125.043.021.006.041.018.062.021.123.027.249.043.375.043.099 0 .202-.012.304-.027l45.669-8.303a1.48 1.48 0 0 0 .163-.037c.014-.005.029.003.042.003h.004c.021 0 .039-.027.06-.035.041-.014.08-.034.12-.052.021-.01.044-.019.064-.03a.17.17 0 0 1 .033-.017c.014-.008.023-.021.037-.028.14-.078.269-.174.38-.285.014-.016.024-.034.038-.048.109-.119.201-.252.271-.398.006-.01.016-.018.021-.029a.203.203 0 0 0 .011-.026l.005-.01.025-.06zm-3.033-3.521L48.805 66.453l32.407-25.202-3.601 43.21zM46.817 63.709L35.863 23.542 79.681 38.15 46.817 63.709zm37.851-23.167l8.926 5.952-11.902 29.75 2.976-35.702zm4.46-1.096L84.53 36.38l-6.129-12.257 10.727 15.323zm-9.252-4.801L37.807 20.622 65.854 6.599l14.022 28.046zM33.268 19.107l-6.485-2.162 23.781-6.487-17.296 8.649zm-11.348-.212l8.67 2.891-20.233 26.012L21.92 18.895zm10.732 5.754l10.845 39.757-36.146-7.228 25.301-32.529zm10.82 43.208L32.969 92.363 8.462 60.855l35.01 7.002zm3.159 1.233l27.826 17.393-38.263 6.959L46.631 69.09z"/></svg>